<?xml version="1.0" standalone="no"?>
<!DOCTYPE svg PUBLIC "-//W3C//DTD SVG 20010904//EN"
 "http://www.w3.org/TR/2001/REC-SVG-20010904/DTD/svg10.dtd">
<svg version="1.0" xmlns="http://www.w3.org/2000/svg"
 width="700.000000pt" height="700.000000pt" viewBox="0 0 700.000000 700.000000"
 preserveAspectRatio="xMidYMid meet">
<metadata>
Created by potrace 1.11, written by Peter Selinger 2001-2013
</metadata>
<g transform="translate(0.000000,700.000000) scale(0.100000,-0.100000)"
fill="#000000" stroke="none">
<path d="M2443 5659 c-258 -65 -493 -354 -686 -844 -48 -123 -140 -404 -152
-465 -2 -12 -7 -30 -10 -40 -3 -10 -8 -28 -10 -41 -2 -12 -11 -45 -19 -73 -8
-28 -17 -62 -20 -76 -3 -20 -37 -192 -62 -314 -2 -12 -7 -43 -10 -71 -3 -27
-10 -70 -14 -95 -11 -57 5 -79 109 -158 179 -135 474 -242 766 -279 121 -16
481 -8 575 12 173 37 206 45 490 124 80 22 159 42 175 45 17 3 57 10 90 16 33
6 114 11 180 10 114 0 145 -2 232 -14 21 -3 65 -8 98 -12 33 -3 74 -8 90 -11
64 -10 382 -11 430 -2 128 25 218 51 295 86 168 76 220 106 300 172 70 59 98
91 133 155 l29 51 -6 165 c-3 91 -8 176 -10 190 -2 14 -7 66 -10 115 -9 121
-28 280 -62 493 -32 203 -122 349 -289 467 -166 118 -434 207 -697 232 -143
14 -384 8 -496 -11 -101 -17 -105 -17 -190 3 -48 11 -98 22 -112 25 -14 3
-108 23 -210 45 -102 21 -201 42 -220 45 -19 3 -60 10 -90 16 -30 6 -71 13
-90 16 -19 3 -46 7 -60 10 -49 8 -126 16 -205 20 -44 3 -105 6 -136 8 -32 2
-87 -5 -126 -15z"/>
<path d="M1419 3476 c-2 -2 -22 -6 -44 -9 -46 -6 -159 -32 -225 -51 -25 -8
-72 -22 -105 -31 -251 -72 -644 -243 -807 -352 -110 -72 -189 -182 -221 -304
-16 -64 -16 -219 1 -290 45 -186 172 -415 308 -553 116 -119 321 -276 454
-349 41 -23 77 -42 80 -43 3 0 30 -12 60 -26 219 -100 474 -146 784 -142 170
2 248 8 366 29 8 1 40 6 70 10 30 4 64 9 75 11 11 2 45 8 75 14 30 6 66 12 80
15 14 3 68 12 120 21 52 8 111 19 130 24 19 5 49 11 65 14 123 22 703 145 985
211 85 19 164 37 175 39 11 3 132 32 268 65 136 33 258 63 270 65 51 11 391
97 497 126 63 17 122 33 130 35 8 2 60 15 115 30 55 15 105 29 110 30 6 1 17
4 25 8 12 4 69 20 220 63 316 88 799 245 1000 326 168 67 334 148 394 191 144
104 154 266 22 356 -26 19 -173 73 -401 151 -198 67 -367 123 -376 125 -9 2
-88 27 -175 55 -88 28 -199 62 -249 75 -49 13 -99 27 -109 31 -15 6 -18 4 -14
-7 65 -177 82 -326 44 -403 -29 -58 -116 -138 -193 -178 -139 -72 -393 -144
-578 -164 -33 -3 -73 -8 -90 -10 -36 -5 -268 -5 -345 0 -327 22 -480 25 -640
12 -52 -5 -97 -9 -100 -11 -3 -2 -30 -6 -60 -10 -30 -4 -129 -22 -220 -41 -91
-20 -176 -37 -190 -40 -14 -3 -45 -10 -70 -15 -25 -6 -54 -13 -65 -15 -11 -2
-31 -6 -45 -9 -71 -15 -254 -45 -311 -50 -35 -3 -84 -8 -109 -11 -57 -6 -288
-5 -360 1 -119 10 -281 37 -400 67 -369 91 -552 204 -524 324 3 16 20 76 36
134 16 58 32 116 34 130 3 13 12 56 20 95 16 73 18 83 32 178 7 42 6 57 -3 57
-6 0 -14 -2 -16 -4z"/>
</g>
</svg>
